<?xml version="1.0" encoding="UTF-8"?>
<svg id="_Слой_1" data-name="Слой 1" xmlns="http://www.w3.org/2000/svg" xmlns:xlink="http://www.w3.org/1999/xlink" viewBox="0 0 178 46">
  <defs>
    <style>
      .cls-1 {
        fill: none;
      }

      .cls-2 {
        clip-path: url(#clippath);
      }

      .cls-3 {
        fill: #fff;
      }
    </style>
    <clipPath id="clippath">
      <rect class="cls-1" y="0" width="46" height="46"/>
    </clipPath>
  </defs>
  <g class="cls-2">
    <g>
      <path class="cls-3" d="m10.39,24.57h-3.2c.52,5.34,3.68,9.91,8.16,12.37v-3.79c-2.68-2.03-4.53-5.09-4.96-8.58h0Z"/>
      <path class="cls-3" d="m35.38,24.57h3.2c-.52,5.34-3.68,9.91-8.16,12.37v-3.79c2.68-2.03,4.53-5.09,4.96-8.58h0Z"/>
      <path class="cls-3" d="m46.01,23c0-1.65-.17-3.25-.5-4.8h-3.27s-18.05,0-18.05,0v27.8c12.15-.62,21.82-10.68,21.82-23h0Zm-18.64,19.36v-20.98h15.39c.04.53.07,1.07.07,1.62,0,9.44-6.62,17.37-15.46,19.36h0Z"/>
      <path class="cls-3" d="m3.77,18.2h0s-3.27,0-3.27,0c-.33,1.55-.5,3.16-.5,4.8,0,12.29,9.61,22.32,21.71,23v-27.79H3.77Zm-.59,4.8c0-.55.02-1.08.07-1.62h15.28v20.96c-8.78-2.04-15.35-9.93-15.35-19.34h0Z"/>
      <path class="cls-3" d="m41.45,15.73s.02.04.02.05c1.12-.05,2.25-.04,3.37-.03,0,0,0-.02-.01-.03C41.91,6.93,33.83.49,24.19,0v15.73h17.26,0Zm-1.6-3.18h-12.48V3.64c5.25,1.19,9.72,4.46,12.48,8.91Z"/>
      <path class="cls-3" d="m3.05,15.73h18.66V0C12.11.54,4.08,6.96,1.17,15.73h1.88s0,0,0,0ZM18.53,3.66v8.88H6.16c2.74-4.41,7.16-7.68,12.37-8.88Z"/>
    </g>
  </g>
  <path class="cls-3" d="m66.66,12.55v9.45h-3.26v-9.45h-5.12v-2.63h13.52v2.63h-5.13Zm18.85,9.45v-5.04h-8.3v5.04h-3.26v-12.08h3.26v4.39h8.3v-4.39h3.26v12.08h-3.26Zm7.04,0v-12.08h12.23v2.58h-8.88v2h8.42v2.58h-8.42v2.36h9v2.58h-12.35Zm35.84-7.95c0,.6-.09,1.16-.26,1.67-.18.5-.46.94-.85,1.31-.39.36-.89.65-1.51.85-.62.21-1.38.31-2.27.31h-5.41v3.81h-3.26v-12.08h8.68c.89,0,1.65.1,2.27.31.62.2,1.12.48,1.51.85.39.36.68.8.85,1.3.18.5.26,1.06.26,1.66Zm-3.3.05c0-.28-.04-.52-.12-.72-.08-.2-.21-.37-.39-.5-.18-.13-.42-.22-.71-.28-.29-.06-.65-.1-1.08-.1h-4.71v3.11h4.71c.43,0,.79-.02,1.08-.07.29-.05.53-.14.71-.25.18-.12.31-.28.39-.47.08-.19.12-.43.12-.71Zm15.09,5.62h-6.73l-1.13,2.29h-3.64l6.32-12.08h3.64l6.32,12.08h-3.64l-1.13-2.29Zm-5.56-2.36h4.41l-2.2-4.45-2.21,4.45Zm18.38-4.81v9.45h-3.26v-9.45h-5.12v-2.63h13.52v2.63h-5.13Zm18.85,9.45v-5.04h-8.3v5.04h-3.26v-12.08h3.26v4.39h8.3v-4.39h3.26v12.08h-3.26Zm-98.66,18.17c-.42.18-.85.33-1.27.47-.43.14-.87.26-1.33.36-.46.11-.94.18-1.45.24-.5.05-1.05.08-1.63.08-1.23,0-2.36-.13-3.4-.4-1.03-.26-1.92-.66-2.67-1.19-.74-.53-1.32-1.2-1.74-1.99-.42-.8-.62-1.73-.62-2.79s.21-1.99.62-2.78c.42-.8,1-1.46,1.74-1.99.75-.53,1.64-.93,2.67-1.2,1.04-.26,2.17-.4,3.4-.4.58,0,1.12.03,1.63.08.51.05.99.13,1.45.24.46.1.9.22,1.33.36.43.14.85.3,1.27.47v2.94c-.33-.18-.69-.36-1.05-.54-.37-.18-.78-.34-1.22-.48-.45-.15-.93-.26-1.47-.35-.53-.09-1.13-.14-1.8-.14-1.03,0-1.88.11-2.56.32-.67.21-1.21.49-1.62.84-.4.35-.69.76-.85,1.21-.16.45-.25.92-.25,1.41,0,.32.04.64.11.96.07.31.19.61.35.89.16.28.38.53.64.76.26.23.59.44.98.61.39.17.85.3,1.37.4.53.09,1.13.14,1.82.14s1.27-.04,1.8-.12c.53-.09,1.02-.2,1.47-.34.45-.14.85-.3,1.22-.47.37-.18.72-.37,1.05-.55v2.94Zm14.6.83v-5.04h-8.3v5.04h-3.26v-12.08h3.26v4.39h8.3v-4.39h3.26v12.08h-3.26Zm21.3-4.07c0,.6-.15,1.17-.45,1.71-.3.53-.75,1-1.35,1.4-.6.4-1.34.71-2.24.95-.89.23-1.93.34-3.13.34s-2.24-.11-3.15-.34c-.9-.23-1.64-.55-2.24-.95-.6-.4-1.05-.86-1.34-1.4-.3-.53-.45-1.1-.45-1.71v-8.01h3.25v6.84c0,.4.05.79.15,1.15.11.36.3.67.58.94.29.27.69.48,1.2.64.52.16,1.18.24,2,.24s1.48-.08,1.99-.24c.51-.16.9-.37,1.19-.64.29-.27.48-.58.58-.94.1-.36.15-.75.15-1.15v-6.84h3.26v8.01Zm6.95,4.07h-3.26v-12.08h8.17c.88,0,1.62.09,2.23.27.62.18,1.11.44,1.49.77.39.33.67.74.83,1.21.18.47.26.99.26,1.57,0,.51-.07.95-.22,1.34-.14.38-.33.71-.58.98-.24.27-.52.5-.84.69-.32.19-.66.34-1.02.47l3.96,4.77h-3.81l-3.66-4.45h-3.56v4.45Zm6.44-8.26c0-.23-.03-.43-.1-.6-.06-.16-.16-.3-.32-.4-.15-.11-.36-.18-.61-.23-.25-.05-.57-.07-.95-.07h-4.47v2.58h4.47c.38,0,.7-.02.95-.07.26-.05.46-.12.61-.22.15-.11.26-.24.32-.4.06-.16.1-.36.1-.6Zm20.15,7.44c-.42.18-.85.33-1.28.47-.43.14-.87.26-1.33.36-.46.11-.94.18-1.45.24-.5.05-1.05.08-1.63.08-1.23,0-2.36-.13-3.4-.4-1.03-.26-1.92-.66-2.67-1.19-.74-.53-1.32-1.2-1.74-1.99-.42-.8-.62-1.73-.62-2.79s.21-1.99.62-2.78c.42-.8,1-1.46,1.74-1.99.75-.53,1.64-.93,2.67-1.2,1.04-.26,2.17-.4,3.4-.4.58,0,1.12.03,1.63.08.51.05.99.13,1.45.24.46.1.9.22,1.33.36.43.14.85.3,1.28.47v2.94c-.33-.18-.69-.36-1.06-.54-.37-.18-.78-.34-1.22-.48-.45-.15-.93-.26-1.47-.35-.53-.09-1.13-.14-1.8-.14-1.02,0-1.88.11-2.56.32-.67.21-1.21.49-1.62.84-.4.35-.69.76-.85,1.21-.16.45-.25.92-.25,1.41,0,.32.03.64.1.96.07.31.19.61.35.89.16.28.38.53.64.76.26.23.59.44.99.61.39.17.85.3,1.37.4.53.09,1.13.14,1.82.14s1.27-.04,1.8-.12c.53-.09,1.02-.2,1.47-.34.44-.14.85-.3,1.22-.47.37-.18.72-.37,1.06-.55v2.94Zm14.6.83v-5.04h-8.3v5.04h-3.26v-12.08h3.26v4.39h8.3v-4.39h3.26v12.08h-3.26Z"/>
</svg>